<svg width="38" height="33" viewBox="0 0 38 33" fill="none" xmlns="http://www.w3.org/2000/svg">
<path fill-rule="evenodd" clip-rule="evenodd" d="M26.008 5.58331C25.6867 5.58331 25.3751 5.61482 25.0765 5.67405C24.3993 5.80835 23.7415 5.36827 23.6072 4.6911C23.4729 4.01393 23.913 3.35611 24.5902 3.22181C25.0485 3.1309 25.523 3.08331 26.008 3.08331C29.6185 3.08331 32.75 5.77373 32.75 9.33331C32.75 12.8929 29.6185 15.5833 26.008 15.5833C25.5231 15.5833 25.0485 15.5358 24.5899 15.4447C23.9127 15.3102 23.4728 14.6523 23.6073 13.9752C23.7418 13.298 24.3997 12.8581 25.0768 12.9926C25.3751 13.0518 25.6866 13.0833 26.008 13.0833C28.4638 13.0833 30.25 11.2966 30.25 9.33331C30.25 7.37007 28.4638 5.58331 26.008 5.58331ZM26.9167 21C26.9167 20.3096 27.4763 19.75 28.1667 19.75C29.0448 19.75 30.2159 19.9859 31.3729 20.3448C32.5487 20.7097 33.8192 21.2356 34.9022 21.8841C35.9383 22.5045 37.0046 23.3553 37.487 24.4531C37.7456 25.0418 37.8393 25.7122 37.6505 26.408C37.4664 27.0868 37.0456 27.6723 36.4853 28.1721C34.9955 29.501 33.186 30.5833 30.8438 30.5833H30.0268C29.3365 30.5833 28.7768 30.0237 28.7768 29.3333C28.7768 28.643 29.3365 28.0833 30.0268 28.0833H30.8438C32.3343 28.0833 33.5736 27.4192 34.8211 26.3065C35.13 26.0309 35.2143 25.8398 35.2378 25.7534C35.2566 25.684 35.2604 25.6004 35.1982 25.4587C35.0387 25.0959 34.5392 24.5807 33.6179 24.029C32.7434 23.5053 31.6648 23.053 30.6321 22.7326C29.5804 22.4063 28.6836 22.25 28.1667 22.25C27.4763 22.25 26.9167 21.6903 26.9167 21Z" fill="#666666"/>
<path d="M9.18363 23.0345L5.87842 21.7502C5.72326 21.8334 5.52917 21.9318 5.30773 22.0442L1.73948 24.2468L0.270526 26.6871L1.67615 29.6946H7.07025C5.68563 29.5011 4.48727 28.8118 3.30345 27.7967C2.71443 27.2917 2.74707 27.0303 2.75229 26.9885C2.76888 26.8519 2.8978 26.5581 3.39204 26.1227C4.17424 25.4336 5.29717 24.86 6.28452 24.3556C6.55637 24.2167 6.81794 24.0831 7.05929 23.9537C7.74055 23.5887 8.45188 23.2822 9.18363 23.0345Z" fill="#666666"/>
<path d="M22.1216 21.7502C17.145 19.0832 10.855 19.0832 5.87842 21.7502L9.18363 23.0345C13.005 21.7407 17.383 22.0471 20.9407 23.9537C21.1821 24.0831 21.4436 24.2167 21.7154 24.3555C22.7028 24.86 23.8258 25.4336 24.608 26.1227C25.1022 26.5581 25.2314 26.8535 25.2479 26.9901C25.2532 27.0318 25.2856 27.2917 24.6965 27.7967C24.3329 28.1085 23.968 28.3895 23.5967 28.6349L26.3238 29.6946C27.2957 28.8613 27.8699 27.8436 27.7295 26.6871C27.6012 25.6309 26.9077 24.8169 26.2606 24.2468C25.2108 23.322 23.6796 22.5451 22.6922 22.0442C22.4708 21.9318 22.2768 21.8334 22.1216 21.7502Z" fill="#666666"/>
<path d="M20.1238 29.75H7.87621C7.60013 29.75 7.33186 29.7311 7.07025 29.6946H1.67615C3.33435 31.1164 5.32071 32.25 7.87621 32.25H20.1238C22.6793 32.25 24.6657 31.1164 26.3238 29.6946H20.9298C20.6682 29.7311 20.3999 29.75 20.1238 29.75Z" fill="#666666"/>
<path d="M26.3238 29.6946L23.5967 28.6349C22.759 29.1884 21.8891 29.5605 20.9298 29.6946H26.3238Z" fill="#666666"/>
<path d="M0.270526 26.6871C0.130065 27.8435 0.704316 28.8613 1.67615 29.6946L0.270526 26.6871Z" fill="#666666"/>
<path d="M1.73948 24.2468C1.09234 24.8169 0.398808 25.6309 0.270526 26.6871L1.73948 24.2468Z" fill="#666666"/>
<path d="M5.30773 22.0442C4.32039 22.5452 2.78924 23.322 1.73948 24.2468L5.30773 22.0442Z" fill="#666666"/>
<path fill-rule="evenodd" clip-rule="evenodd" d="M14 3.08331C11.0085 3.08331 8.58334 5.50844 8.58334 8.49998C8.58334 11.4915 11.0085 13.9166 14 13.9166C16.9915 13.9166 19.4167 11.4915 19.4167 8.49998C19.4167 5.50844 16.9915 3.08331 14 3.08331ZM6.08334 8.49998C6.08334 4.12772 9.62775 0.583313 14 0.583313C18.3722 0.583313 21.9167 4.12772 21.9167 8.49998C21.9167 12.8722 18.3722 16.4166 14 16.4166C9.62775 16.4166 6.08334 12.8722 6.08334 8.49998Z" fill="#666666"/>
</svg>
